<svg id="Line_stroke_Ex" height="512" viewBox="0 0 512 512" width="512" xmlns="http://www.w3.org/2000/svg" data-name="Line stroke Ex"><g><path d="m488 424h-32.808a41.661 41.661 0 0 0 -3.377-55.016l-53.346-53.346-12.952-37.165a142.609 142.609 0 0 0 13.8-54.473h16.683v-16h-16.737a143.389 143.389 0 0 0 -135.263-134.73v-17.27h-16v17.27a143.389 143.389 0 0 0 -135.263 134.73h-16.737v16h16.683a143.388 143.388 0 0 0 135.317 135.711v16.289h16v-16.289a144.364 144.364 0 0 0 26.4-3.929l49.16 18.609 49.609 49.609h-53.169a7.994 7.994 0 0 0 -3.578.845l-14.311 7.155h-124.222l-14.311-7.155a7.994 7.994 0 0 0 -3.578-.845h-152a8 8 0 0 0 -8 8v20a28.032 28.032 0 0 0 28 28h424a28.032 28.032 0 0 0 28-28v-20a8 8 0 0 0 -8-8zm-240-96v15.691a127.4 127.4 0 0 1 -119.293-119.691h15.293v-16h-15.232a127.405 127.405 0 0 1 119.232-118.71v14.71h16v-14.71a127.405 127.405 0 0 1 119.232 118.71h-15.232v16h15.293a127.4 127.4 0 0 1 -119.293 119.691v-15.691zm156.3 88.5-54.641-54.641a7.988 7.988 0 0 0 -2.825-1.825l-32.643-12.357a142.793 142.793 0 0 0 43.288-29.712 145 145 0 0 0 17.492-21.143l8.994 25.809a8 8 0 0 0 1.9 3.024l54.635 54.645a25.6 25.6 0 0 1 -36.2 36.2zm75.7 35.5a12.013 12.013 0 0 1 -12 12h-424a12.013 12.013 0 0 1 -12-12v-12h142.111l14.311 7.155a7.994 7.994 0 0 0 3.578.845h128a7.994 7.994 0 0 0 3.578-.845l14.311-7.155h142.111z"/><path d="m480 224h16v184h-16z"/><path d="m488 32h-120v16h112v48h-112v16h112v96h16v-168a8 8 0 0 0 -8-8z"/><path d="m32 112h112v-16h-112v-48h320v-16h-328a8 8 0 0 0 -8 8v120h16z"/><path d="m16 176h16v232h-16z"/><path d="m448 64h16v16h-16z"/><path d="m112 64h16v16h-16z"/><path d="m48 64h16v16h-16z"/><path d="m80 64h16v16h-16z"/><path d="m48 376v24a8 8 0 0 0 8 8h24v-16h-16v-16z"/><path d="m80 128h-24a8 8 0 0 0 -8 8v24h16v-16h16z"/><path d="m464 160v-24a8 8 0 0 0 -8-8h-24v16h16v16z"/><path d="m344 288v-96a8 8 0 0 0 -3-6.247l-13-10.4v-31.353a8 8 0 0 0 -8-8h-24a8 8 0 0 0 -7.976 7.375l-27.024-21.622a8 8 0 0 0 -10 0l-80 64a8 8 0 0 0 -3 6.247v96a8 8 0 0 0 8 8h160a8 8 0 0 0 8-8zm-16-8h-144v-84.155l72-57.6 35 28a8 8 0 0 0 13-6.245v-8h8v27.2a8 8 0 0 0 3 6.247l13 10.4z"/><path d="m240.418 238.261-18.761-18.761-11.314 11.313 24 24a8 8 0 0 0 10.864.417l56-48-10.414-12.148z"/></g></svg>