<svg id="Capa_1" enable-background="new 0 0 512 512" height="512" viewBox="0 0 512 512" width="512" xmlns="http://www.w3.org/2000/svg"><g><path d="m341.526 386-9.244-8.213 2.952-6.564c-11.364-27.543-20.81-55.638-28.625-85.224l-7.001-6.645 3.28-8.131c-1.218-5.029-2.399-10.099-3.532-15.224l-9.212-7.682 6.088-7.094c-4.388-21.749-8.08-44.427-11.169-68.368-4.344-33.663-8.801-68.208-12.157-94.214l-24.868-5.462c-3.04 23.56-33 229.738-56.31 278.891l35.437-10.847 9.323-55.223-3.698-9.317 6.193-5.459h34.034l26.592 95.324-117.192 10.796-62.518 120.158 58.647-8.002s2.323-6.308 3.449-9.365c13.835-37.572 48.564-56.679 76.902-56.679 68.064 0 85.685 74.046 85.685 74.046l46.909-15.502c-22.189-35.12-34.756-61.506-49.965-96z" fill="#adb5c1"/><path d="m391.491 482h-42.899c-1.467 0-2.778-.914-3.284-2.291l-31.443-93.709h27.661c-2.165-4.91-4.253-9.836-6.292-14.776h-26.811l-5.523-15-11.856-70.224h15.565c-1.289-4.878-2.519-9.813-3.721-14.776h-11.38c-1.708 0-3.167-1.233-3.451-2.917l-2.04-12.083 13.34-.224c-1.078-4.879-2.121-9.803-3.124-14.776h-67.925c5.353-26.281 9.822-53.867 13.629-83.368 3.553-27.531 7.181-55.654 10.221-79.214h20.749c-.685-5.305-1.324-10.263-1.907-14.776l-15-15-15 15c-3.437 26.637-8.834 68.46-14.064 108.99-16.898 130.962-51.594 224.43-121.89 331.644l70.554-6.998 6.395-17.367c25.34-68.815 122.668-68.816 148.009-.002l6.396 17.369 70.554 6.998c-3.298-5.031-12.319-17.524-15.463-22.5zm-134.897-225.87 13.89.093 2.532 15h-18.969zm-33.899 10.793c.843-3.618 1.664-7.263 2.472-10.923l16.373.081-2.557 15.143h-12.884c-2.257 0-3.917-2.103-3.404-4.301zm-4.724 19.077h57.541l11.856 70.224-97.03 15c10.914-27.688 19.988-55.783 27.633-85.224zm-36.663 196h-46.888c20.989-35.382 35.513-61.77 49.888-96h32.351zm85.357-66.46c-34.145 0-51.904 14.928-51.905 14.929l16.375-44.469h64.206l15.416 41.865c-11.405-7.676-28.039-12.325-44.092-12.325z" fill="#909ba6"/><path d="m191.785 371.224-10-25 153.43 13v12z" fill="#c8d2dc"/><path d="m191.785 371.224h-15v-30h158.43v18h-143.43z" fill="#adb5c1"/><path d="m256 48.365c-4.142 0-7.5-3.358-7.5-7.5v-33.365c0-4.142 3.358-7.5 7.5-7.5s7.5 3.358 7.5 7.5v33.365c0 4.142-3.358 7.5-7.5 7.5z" fill="#adb5c1"/><path d="m250.78 33.865.22 20 25.221-5 3.602-10.35c.792-2.275-.897-4.65-3.306-4.65z" fill="#c8d2dc"/><path d="m250.78 33.865h-15.296c-2.408 0-4.097 2.376-3.306 4.65l8.822 25.35h30l5.221-15h-17.733c-1.49 0-2.816-.943-3.306-2.35z" fill="#adb5c1"/><path d="m346.638 333.724h-169.853l-10 7.5 10 7.5h169.853c4.142 0 7.5-3.358 7.5-7.5s-3.358-7.5-7.5-7.5z" fill="#c8d2dc"/><path d="m165.362 333.724c-4.142 0-7.5 3.358-7.5 7.5s3.358 7.5 7.5 7.5h11.423v-15z" fill="#adb5c1"/><path d="m229.795 233.724h-31.676c-4.142 0-7.5 3.358-7.5 7.5s3.358 7.5 7.5 7.5h28.616c.538-2.496 1.065-5.005 1.573-7.5.506-2.485.996-4.992 1.487-7.5z" fill="#adb5c1"/><path d="m313.882 233.724h-84.087c-.49 2.508-.981 5.016-1.487 7.5-.508 2.496-1.036 5.004-1.573 7.5h87.148c4.142 0 7.5-3.358 7.5-7.5s-3.359-7.5-7.501-7.5z" fill="#c8d2dc"/><path d="m458.87 512h-405.74c-4.142 0-7.5-3.358-7.5-7.5s3.358-7.5 7.5-7.5h405.74c4.142 0 7.5 3.358 7.5 7.5s-3.358 7.5-7.5 7.5z" fill="#f4daa7"/></g></svg>